<?xml version="1.0" ?>
<!DOCTYPE svg  PUBLIC '-//W3C//DTD SVG 1.1//EN'  'http://www.w3.org/Graphics/SVG/1.1/DTD/svg11.dtd'>
<!-- Uploaded to: SVG Repo, www.svgrepo.com, Generator: SVG Repo Mixer Tools -->
<svg fill="#000000" width="800px" height="800px" viewBox="0 0 846.66 846.66" style="shape-rendering:geometricPrecision; text-rendering:geometricPrecision; image-rendering:optimizeQuality; fill-rule:evenodd; clip-rule:evenodd" version="1.1" xml:space="preserve" xmlns="http://www.w3.org/2000/svg" xmlns:xlink="http://www.w3.org/1999/xlink">
<defs>
<style type="text/css">
   <![CDATA[
    .fil0 {fill:black;fill-rule:nonzero}
   ]]>
  </style>
</defs>
<g id="Layer_x0020_1">
<path class="fil0" d="M510.63 69.7c-27.14,0 -27.14,-41.26 0,-41.26l227.08 0c11.4,0 20.63,9.24 20.63,20.63l0 766.03c0,11.4 -9.23,20.63 -20.63,20.63l-628.76 0c-11.4,0 -20.63,-9.23 -20.63,-20.63l0 -511.42c0,-27.14 41.26,-27.14 41.26,0l0 490.79 587.5 0 0 -724.77 -206.45 0zm35.35 386.85c-27.14,0 -27.14,-41.26 0,-41.26l82.51 0c27.13,0 27.13,41.26 0,41.26l-82.51 0zm0 69.69c-27.14,0 -27.14,-41.26 0,-41.26l82.51 0c27.13,0 27.13,41.26 0,41.26l-82.51 0zm0 69.68c-27.14,0 -27.14,-41.26 0,-41.26l82.51 0c27.13,0 27.13,41.26 0,41.26l-82.51 0zm0 69.69c-27.14,0 -27.14,-41.26 0,-41.26l82.51 0c27.13,0 27.13,41.26 0,41.26l-82.51 0zm0 69.69c-27.14,0 -27.14,-41.27 0,-41.27l82.51 0c27.13,0 27.13,41.27 0,41.27l-82.51 0zm-163.91 -139.38c-27.13,0 -27.13,-41.26 0,-41.26l82.51 0c27.14,0 27.14,41.26 0,41.26l-82.51 0zm0 69.69c-27.13,0 -27.13,-41.26 0,-41.26l82.51 0c27.14,0 27.14,41.26 0,41.26l-82.51 0zm0 69.69c-27.13,0 -27.13,-41.27 0,-41.27l82.51 0c27.14,0 27.14,41.27 0,41.27l-82.51 0zm-163.9 -69.69c-27.13,0 -27.13,-41.26 0,-41.26l82.51 0c27.14,0 27.14,41.26 0,41.26l-82.51 0zm0 69.69c-27.13,0 -27.13,-41.27 0,-41.27l82.51 0c27.14,0 27.14,41.27 0,41.27l-82.51 0zm69 -704.02c0,-27.14 41.26,-27.14 41.26,0l0 12.23 45.67 0c27.13,0 27.13,41.26 0,41.26l-45.67 0 0 58.46 12.8 0c38.82,0 70.49,31.68 70.49,70.5 0,38.81 -31.67,70.49 -70.49,70.49l-12.8 0 0 12.23c0,27.14 -41.26,27.14 -41.26,0l0 -12.23 -45.66 0c-27.14,0 -27.14,-41.26 0,-41.26l45.66 0 0 -58.47 -12.8 0c-38.76,0 -70.49,-31.73 -70.49,-70.49 0,-38.76 31.73,-70.49 70.49,-70.49l12.8 0 0 -12.23zm41.26 153.21l0 58.47 12.8 0c16.04,0 29.23,-13.2 29.23,-29.23 0,-16.04 -13.2,-29.24 -29.23,-29.24l-12.8 0zm-41.26 -41.26l0 -58.46 -12.8 0c-15.43,0 -29.23,15.3 -29.23,29.23 0,15.43 15.3,29.23 29.23,29.23l12.8 0z"/>
</g>
</svg>