<?xml version="1.0" ?>
<!DOCTYPE svg  PUBLIC '-//W3C//DTD SVG 1.1//EN'  'http://www.w3.org/Graphics/SVG/1.1/DTD/svg11.dtd'>
<!-- Uploaded to: SVG Repo, www.svgrepo.com, Generator: SVG Repo Mixer Tools -->
<svg width="800px" height="800px" viewBox="0 0 32 32" enable-background="new 0 0 32 32" version="1.1" xml:space="preserve" xmlns="http://www.w3.org/2000/svg" xmlns:xlink="http://www.w3.org/1999/xlink">
<g id="Energy20"/>
<g id="Energy19"/>
<g id="Energy18"/>
<g id="Energy17"/>
<g id="Energy16"/>
<g id="Energy15">
<g>
<path d="M26,25h-3c-0.5527,0-1-0.4473-1-1s0.4473-1,1-1h3c0.5518,0,1-0.4482,1-1v-6c0-0.5527,0.4473-1,1-1    s1,0.4473,1,1v6C29,23.6543,27.6543,25,26,25z" fill="#FFB841"/>
</g>
<g>
<path d="M24,4v26c0,0.55-0.45,1-1,1H5c-0.55,0-1-0.45-1-1V4c0-1.65,1.35-3,3-3h14C22.65,1,24,2.35,24,4z" fill="#BF4D48"/>
</g>
<g>
<path d="M21,6v8c0,0.55-0.45,1-1,1H8c-0.55,0-1-0.45-1-1V6c0-0.55,0.45-1,1-1h12C20.55,5,21,5.45,21,6z" fill="#FFB841"/>
</g>
<g>
<path d="M26,31H2c-0.5527,0-1-0.4473-1-1s0.4473-1,1-1h24c0.5527,0,1,0.4473,1,1S26.5527,31,26,31z" fill="#714AA5"/>
</g>
<g>
<path d="M31,8v8c0,0.55-0.45,1-1,1h-4c-0.55,0-1-0.45-1-1V6c0-0.35,0.18-0.67,0.47-0.85    c0.3-0.18,0.67-0.2,0.98-0.04l4,2C30.79,7.28,31,7.62,31,8z" fill="#714AA5"/>
</g>
</g>
<g id="Energy14"/>
<g id="Energy13"/>
<g id="Energy12"/>
<g id="Energy11"/>
<g id="Energy10"/>
<g id="Energy09"/>
<g id="Energy08"/>
<g id="Energy07"/>
<g id="Energy06"/>
<g id="Energy05"/>
<g id="Energy04"/>
<g id="Energy03"/>
<g id="Energy02"/>
<g id="Energy01"/>
</svg>