<svg xmlns="http://www.w3.org/2000/svg" shape-rendering="geometricPrecision" text-rendering="geometricPrecision" image-rendering="optimizeQuality" fill-rule="evenodd" clip-rule="evenodd" viewBox="0 0 512 512"><path d="M256.002 0c70.69 0 134.695 28.661 181.016 74.982C483.344 121.303 512 185.313 512 256.002c0 70.69-28.656 134.695-74.982 181.016C390.697 483.344 326.692 512 256.002 512c-70.689 0-134.699-28.661-181.02-74.982S0 326.692 0 256.002c0-70.689 28.661-134.699 74.982-181.02S185.313 0 256.002 0zm-51.265 158.59h121.838a3.299 3.299 0 013.288 3.292v30.19c0 1.806-1.487 3.298-3.288 3.298h-86.169v36.104h64.746c1.815 0 3.293 1.502 3.293 3.293v30.195c0 1.787-1.501 3.288-3.293 3.288h-64.746v28.66h19.621c1.773 0 3.218 1.464 3.218 3.218v23.186c0 1.75-1.468 3.223-3.218 3.223h-19.621v23.576c0 1.796-1.506 3.297-3.298 3.297H208.03a3.31 3.31 0 01-3.293-3.297v-23.576h-19.373c-1.763 0-3.222-1.459-3.222-3.223v-23.186a3.23 3.23 0 013.222-3.218h19.373V158.59zm252.278 104.856a201.882 201.882 0 01-4.888 37.404l38.187 10.236a240.93 240.93 0 006.22-47.64h-39.519zm-8.73 51.777a199.647 199.647 0 01-14.466 34.88l34.238 19.762a239.358 239.358 0 0018.416-44.412l-38.188-10.23zm-21.891 47.714a201.93 201.93 0 01-23.149 30.101l27.975 27.905a241.166 241.166 0 0029.411-38.244l-34.237-19.762zm-33.624 40.556a202.832 202.832 0 01-29.819 22.891l19.767 34.238a241.791 241.791 0 0038.098-29.28l-28.046-27.849zm-42.676 30.331a200.088 200.088 0 01-34.871 14.461l10.235 38.188a238.872 238.872 0 0044.403-18.411l-19.767-34.238zm-49.239 18.303a201.233 201.233 0 01-37.404 4.888v39.519a240.88 240.88 0 0047.635-6.22l-10.231-38.187zm-52.302 4.888a202.039 202.039 0 01-37.403-4.888l-10.231 38.187a240.92 240.92 0 0047.634 6.22v-39.519zm-51.771-8.73a200.119 200.119 0 01-34.871-14.461l-19.767 34.233a239.493 239.493 0 0044.402 18.416l10.236-38.188zm-47.729-21.901a202.413 202.413 0 01-29.922-22.984l-27.943 27.942a241.411 241.411 0 0038.099 29.275l19.766-34.233zm-40.448-33.51a202.55 202.55 0 01-22.994-29.941l-34.238 19.771a241.72 241.72 0 0029.289 38.112l27.943-27.942zm-30.42-42.771a200.324 200.324 0 01-14.466-34.88l-38.192 10.235a239.166 239.166 0 0018.421 44.412l34.237-19.767zM59.877 300.85a201.688 201.688 0 01-4.887-37.404H15.465a241.03 241.03 0 006.22 47.64l38.192-10.236zm-4.887-52.301a202.18 202.18 0 014.887-37.399L21.69 200.914a240.957 240.957 0 00-6.225 47.635H54.99zm8.729-51.772a199.48 199.48 0 0114.471-34.876l-34.242-19.767a238.885 238.885 0 00-18.421 44.408l38.192 10.235zm21.897-47.71a201.867 201.867 0 0122.994-29.936L80.662 91.184a241.788 241.788 0 00-29.289 38.112l34.243 19.771zm33.524-40.457a202.284 202.284 0 0129.918-22.985l-19.771-34.242a241.465 241.465 0 00-38.099 29.274l27.952 27.953zm42.775-30.425a200.726 200.726 0 0134.867-14.461l-10.236-38.197a239.293 239.293 0 00-44.402 18.416l19.771 34.242zm49.239-18.303a201.601 201.601 0 0137.399-4.888V15.465a241.019 241.019 0 00-47.634 6.22l10.235 38.197zm52.297-4.888c12.82.469 25.321 2.14 37.399 4.888l10.236-38.197a241.029 241.029 0 00-47.635-6.22v39.529zm51.772 8.73a200.101 200.101 0 0134.866 14.461l19.772-34.242a239.161 239.161 0 00-44.403-18.416l-10.235 38.197zm47.724 21.901a202.053 202.053 0 0129.917 22.985l27.952-27.953a241.755 241.755 0 00-38.098-29.274l-19.771 34.242zm40.368 33.422a202.142 202.142 0 0123.079 30.016l34.237-19.762a241.594 241.594 0 00-29.289-38.117l-1.998 1.998-25.949 25.949-.08-.084zm30.504 42.85c14.068 26.516 22.098 56.035 23.196 86.652h39.519c-.497-16.343-2.617-32.268-6.22-47.63l-38.187 10.231a198.082 198.082 0 00-3.842-14.373l38.188-10.231a239.274 239.274 0 00-18.416-44.412l-34.238 19.763zM256.002 68.762c103.413 0 187.245 83.833 187.245 187.24 0 103.413-83.832 187.245-187.245 187.245-103.412 0-187.245-83.832-187.245-187.245 0-103.407 83.833-187.24 187.245-187.24z"/></svg>